<svg xmlns="http://www.w3.org/2000/svg" width="118.911" height="13.479" viewBox="0 0 118.911 13.479"><g transform="translate(-43.356 -445.648)"><path d="M133.8,510.847l-1.7-2.945-6.067,3.5-6.067-3.5-1.7,2.945,6.067,3.5v6.644h3.4V514.35Z" transform="translate(-14.496 -62.254)" fill="#1d1d1b"/><path d="M83.534,521.031l-1.077-2.609h-5.37l-1.1,2.609h-3.4l5.52-12.592h3.744l5.6,12.592ZM79.829,511.8l-1.834,4.386h3.611Z" transform="translate(-8.897 -62.32)" fill="#1d1d1b"/><path d="M98.971,521.03V508.438h3.668v9.738h8.073v2.854Z" transform="translate(-12.131 -62.32)" fill="#1d1d1b"/><path d="M151.254,521.031h-6.561V508.439h6.561c4.292,0,6.787,2.477,6.787,5.559v1.513c0,3.062-2.5,5.521-6.787,5.521m3.062-7.071c0-1.74-1.191-2.931-3.252-2.931h-2.7v7.412h2.7c2.061,0,3.252-1.21,3.252-2.95Z" transform="translate(-17.735 -62.32)" fill="#1d1d1b"/><path d="M176.034,521.389c-4.216,0-6.958-2.7-6.958-6.031V514c0-3.346,2.742-6.031,6.958-6.031s6.957,2.685,6.957,6.031v1.361c0,3.327-2.741,6.031-6.957,6.031m3.214-7.544a3.214,3.214,0,0,0-6.428,0v1.646a3.214,3.214,0,0,0,6.428,0Z" transform="translate(-20.724 -62.262)" fill="#1d1d1b"/><path d="M60.351,517.183a4.932,4.932,0,0,1-3.469,1.425c-2.364,0-3.725-1.4-3.725-3.213v-1.38c0-1.834,1.361-3.253,3.668-3.253a4.883,4.883,0,0,1,3.549,1.481l2.442-1.409a7.449,7.449,0,0,0-6.181-2.869c-4.348,0-7.222,2.741-7.222,6.068v1.343c0,3.307,2.779,6.012,7.184,6.012a7.319,7.319,0,0,0,6.116-2.842Z" transform="translate(-6.057 -62.262)" fill="#1d1d1b"/></g></svg>