<svg xmlns="http://www.w3.org/2000/svg" width="100.701" height="15.33" viewBox="0 0 100.701 15.33"><g transform="translate(-1618.318 -26009.309)"><path d="M1684.831,522.17V508.11h9.453v2.86h-6.176v2.661h5.839v2.721h-5.839v2.919h6.534v2.9Z" transform="translate(-66.512 25502.152)"/><path d="M1704.931,522.753l-2.124-3.038-2.185,3.038h-3.773l3.952-5.183-3.574-4.706h3.793l1.847,2.641,1.866-2.641h3.674l-3.554,4.706,3.912,5.183Z" transform="translate(-67.985 25501.568)"/><path d="M1715.172,514.922v3.788a1.707,1.707,0,0,0,.268,1.046,1.147,1.147,0,0,0,.963.349,3.473,3.473,0,0,0,.507-.04,1.767,1.767,0,0,0,.448-.119l.039,2.383a5.489,5.489,0,0,1-.853.208,6.068,6.068,0,0,1-1.033.089,4.878,4.878,0,0,1-1.669-.248,2.564,2.564,0,0,1-1.082-.717,2.813,2.813,0,0,1-.586-1.115A5.446,5.446,0,0,1,1712,519.1v-4.181h-1.589V512.5h1.568v-2.6h3.2v2.6h2.323v2.423Z" transform="translate(-69.647 25501.934)"/><path d="M1726.642,515.5a2.561,2.561,0,0,0-.426-.079c-.14-.013-.276-.02-.407-.02a2.334,2.334,0,0,0-1.1.238,2.262,2.262,0,0,0-.715.575,2.195,2.195,0,0,0-.387.733,2.468,2.468,0,0,0-.118.693v5.07h-3.257v-9.878h3.138v1.43h.04a3.234,3.234,0,0,1,1.072-1.24,2.757,2.757,0,0,1,1.608-.48,3.74,3.74,0,0,1,.388.02,1.508,1.508,0,0,1,.308.06Z" transform="translate(-70.851 25501.607)"/><path d="M1728.6,514.169a5.707,5.707,0,0,1,2.035-1.251,6.994,6.994,0,0,1,2.373-.416,6.34,6.34,0,0,1,2.115.307,3.155,3.155,0,0,1,1.4.953,4.082,4.082,0,0,1,.785,1.629,9.613,9.613,0,0,1,.248,2.334v4.984h-2.979v-1.052h-.06a2.44,2.44,0,0,1-1.142.953,4.051,4.051,0,0,1-1.657.338,5.047,5.047,0,0,1-1.231-.159,3.619,3.619,0,0,1-1.162-.516,2.8,2.8,0,0,1-.863-.954,2.939,2.939,0,0,1-.338-1.469,2.5,2.5,0,0,1,.586-1.728,3.843,3.843,0,0,1,1.509-1.013,8,8,0,0,1,2.056-.476,21.18,21.18,0,0,1,2.2-.119v-.159a1.213,1.213,0,0,0-.517-1.082,2.225,2.225,0,0,0-1.271-.347,3.168,3.168,0,0,0-1.341.3,4.266,4.266,0,0,0-1.1.715Zm5.977,4.23h-.417q-.537,0-1.083.05a4.438,4.438,0,0,0-.973.189,1.8,1.8,0,0,0-.7.407.934.934,0,0,0-.278.7.858.858,0,0,0,.129.477,1,1,0,0,0,.327.318,1.389,1.389,0,0,0,.457.168,2.593,2.593,0,0,0,.5.049,2.013,2.013,0,0,0,1.52-.546,2.041,2.041,0,0,0,.527-1.479Z" transform="translate(-71.819 25501.613)"/><path d="M1752.665,517.052a6.248,6.248,0,0,1-.317,1.986,5.09,5.09,0,0,1-.924,1.678,4.555,4.555,0,0,1-1.478,1.163,4.634,4.634,0,0,1-3.863.03,3.089,3.089,0,0,1-1.36-1.163h-.04v1.292h-3V507.024h3.257V513.2h.039a4.106,4.106,0,0,1,1.171-.913,3.771,3.771,0,0,1,1.847-.417,4.353,4.353,0,0,1,3.406,1.549,5.159,5.159,0,0,1,.934,1.658,5.984,5.984,0,0,1,.327,1.976m-3.138,0a2.976,2.976,0,0,0-.149-.934,2.284,2.284,0,0,0-1.181-1.37,2.238,2.238,0,0,0-1.014-.219,2.186,2.186,0,0,0-.992.219,2.355,2.355,0,0,0-.745.576,2.634,2.634,0,0,0-.477.814,2.671,2.671,0,0,0,0,1.866,2.614,2.614,0,0,0,.477.814,2.356,2.356,0,0,0,.745.577,2.186,2.186,0,0,0,.992.218,2.192,2.192,0,0,0,1.748-.795,2.4,2.4,0,0,0,.447-.824,3.06,3.06,0,0,0,.149-.943" transform="translate(-73.48 25502.285)"/><rect width="3.316" height="15.013" transform="translate(1681.29 26009.309)"/><path d="M1763.072,514.169a5.709,5.709,0,0,1,2.035-1.251,7,7,0,0,1,2.373-.416,6.339,6.339,0,0,1,2.115.307,3.156,3.156,0,0,1,1.4.953,4.082,4.082,0,0,1,.785,1.629,9.613,9.613,0,0,1,.248,2.334v4.984h-2.979v-1.052h-.06a2.442,2.442,0,0,1-1.142.953,4.049,4.049,0,0,1-1.657.338,5.047,5.047,0,0,1-1.231-.159,3.619,3.619,0,0,1-1.162-.516,2.8,2.8,0,0,1-.864-.954,2.941,2.941,0,0,1-.338-1.469,2.5,2.5,0,0,1,.586-1.728,3.845,3.845,0,0,1,1.509-1.013,8,8,0,0,1,2.056-.476,21.181,21.181,0,0,1,2.2-.119v-.159a1.213,1.213,0,0,0-.517-1.082,2.224,2.224,0,0,0-1.27-.347,3.169,3.169,0,0,0-1.341.3,4.273,4.273,0,0,0-1.1.715Zm5.977,4.23h-.417q-.537,0-1.083.05a4.445,4.445,0,0,0-.973.189,1.8,1.8,0,0,0-.7.407.934.934,0,0,0-.278.7.859.859,0,0,0,.129.477,1,1,0,0,0,.327.318,1.389,1.389,0,0,0,.457.168,2.6,2.6,0,0,0,.5.049,2.013,2.013,0,0,0,1.52-.546,2.042,2.042,0,0,0,.527-1.479Z" transform="translate(-76.044 25501.613)"/><path d="M1782.868,516.016a2,2,0,0,0-.755-.576,2.323,2.323,0,0,0-.973-.219,2.065,2.065,0,0,0-.933.209,2.277,2.277,0,0,0-.715.556,2.641,2.641,0,0,0-.467.8,2.79,2.79,0,0,0-.168.973,2.957,2.957,0,0,0,.159.973,2.364,2.364,0,0,0,.467.8,2.215,2.215,0,0,0,.735.546,2.238,2.238,0,0,0,.963.2,2.709,2.709,0,0,0,.983-.189,1.877,1.877,0,0,0,.784-.547l1.807,2.205a4.263,4.263,0,0,1-1.589.934,6.263,6.263,0,0,1-2.065.337,6.536,6.536,0,0,1-2.188-.357,5.1,5.1,0,0,1-1.764-1.042,4.9,4.9,0,0,1-1.179-1.658,5.817,5.817,0,0,1,0-4.389,4.9,4.9,0,0,1,1.179-1.658,5.221,5.221,0,0,1,1.764-1.052,6.331,6.331,0,0,1,2.168-.368,5.756,5.756,0,0,1,1.063.1,7.247,7.247,0,0,1,1.012.268,4.64,4.64,0,0,1,.9.417,3.8,3.8,0,0,1,.7.546Z" transform="translate(-77.63 25501.613)"/><path d="M1798.118,522.037h-4.032l-3.237-4.746h-.06v4.746h-3.275V507.024h3.275v9.135h.06l3.158-4.012h3.952l-3.812,4.468Z" transform="translate(-79.098 25502.285)"/></g></svg>