<svg xmlns="http://www.w3.org/2000/svg" width="65.428" height="24.096" viewBox="0 0 65.428 24.096"><g transform="translate(-553.067 -26004.461)"><path d="M511.145,519.592a8.743,8.743,0,0,1-3.982.988c-2.767,0-3.67-1.468-3.67-4.546,0-2.569.028-5.45.085-8.584h-1.694v-1.242a23.689,23.689,0,0,0,4.264-4.574h1.665v3.982h3.062v1.835H507.7c-.056,2.542-.085,4.743-.085,6.664,0,2.711.113,4.235,2.372,4.235a6.511,6.511,0,0,0,1.158-.169Z" transform="translate(78.483 25502.945)" fill="#1d1d1b"/><path d="M520.183,511.077c-.028-2.937-.79-4.406-2.372-4.406-1.469,0-2.373,1.525-2.373,4.406Zm3.171,9.221c-1.335,0-2.523.21-5.289.21-4.377,0-6.833-2.683-6.833-7.37,0-4.743,2.739-7.963,6.862-7.963,3.812,0,6.269,2.852,6.326,7.539h-8.981a5.8,5.8,0,0,0,4.135,5.707,10.7,10.7,0,0,0,3.678.562c2.089-.061,2.739-.755,2.739-2.8V505.547c0-2.05-.46-2.69-2.716-2.69V501.5h8.25c2.665,0,4.559.076,5.738.538a3.972,3.972,0,0,1,2.919,3.79c0,2.281-1.794,3.716-5.276,4.177,4.227.614,6.25,2.255,6.25,5.149a5,5,0,0,1-2.4,4.305c-1.306.77-4.277,1.031-6.178.984-2.992-.077-8.035-.144-9.222-.144m6.788-7.4c0,3.151.052,4.893.256,5.278.256.486.742.563,1.716.563,2.87,0,4.381-1.435,4.381-4.049,0-2.536-1.692-3.79-5.123-3.79-.205,0-.615.025-1.23.025Zm.82-3.355c3,0,4.56-1.178,4.56-3.305,0-2.1-1.537-3.356-4.252-3.356-.231,0-.59.027-1.1.053-.026,2.33-.053,3.714-.053,4.149v2.433c.283.026.564.026.846.026" transform="translate(77.338 25502.963)" fill="#1d1d1b"/><path d="M486.5,520.842c-1.058-.456-1.046.031-1.07.311v.013c-.206,2.936-3.335,4.938-8.053,4.938-4.349,0-6.608-1.5-6.608-3.812,0-1.073.537-1.693,1.694-2.23a3.08,3.08,0,0,1-1.327-2.626c0-1.3.762-2.344,2.485-3.051a3.985,3.985,0,0,1-2.232-3.838c0-2.853,2.373-4.886,5.874-4.886a31.218,31.218,0,0,1,3.587.509h.056l3.988,0v1.9h-2.247a3.864,3.864,0,0,1,1,2.752c0,2.966-2.033,4.546-6.072,4.546a8.855,8.855,0,0,1-2.372-.31c-.847.366-1.271.875-1.271,1.326,0,.763.791.961,2.513.961.706,0,1.723-.085,3.05-.085,2.166,0,3.835.368,4.846,1.177l.012.013a5.223,5.223,0,0,1-.16-1.329c0-2.993,2.6-3.677,6.047-4.807,2.8-.931,3.106-.9,3.106-2.428,0-1.751-.565-2.626-1.723-2.626a1.885,1.885,0,0,0-1.892,2,7.247,7.247,0,0,0,.113,1.045,2.5,2.5,0,0,1-2.033.932,2.087,2.087,0,0,1-2.23-2.09c0-1.807,2.145-3.444,5.619-3.444,4.4,0,6.239,1.693,6.239,5.534,0,2.062-.2,4.292-.2,6.693,0,1.044.423,1.439,1.581,1.468v1.243a13.714,13.714,0,0,1-3.079.422c-1.383,0-2.033-.394-2.372-1.636a7.657,7.657,0,0,1-4.719,1.756,6.047,6.047,0,0,1-2.129-.341Zm2.3-4.343a2.088,2.088,0,0,0,2.117,2.316c1.61,0,2.372-1.074,2.372-3.219v-2.654c-3.021.96-4.489,1.779-4.489,3.557m-9.193-5.982c0-2.286-.509-3.417-2.034-3.417-1.552,0-2,1.158-2,3.417,0,2.288.452,3.446,2,3.446s2.034-1.157,2.034-3.446M473.735,521.5c0,1.666,1.637,3.219,4.49,3.219,2.428,0,3.784-1.157,3.784-2.429,0-.988-.593-1.382-1.808-1.382-1.016,0-1.693.026-2.032.026a31.2,31.2,0,0,1-4.292-.226,2.763,2.763,0,0,0-.141.791" transform="translate(82.297 25502.453)" fill="#1d1d1b"/></g></svg>