<svg xmlns="http://www.w3.org/2000/svg" width="164.927" height="12.877" viewBox="0 0 164.927 12.877"><path d="M1382.928,521.085h2.466V508.638h-2.466v5.811h-7.214v-5.811h-2.465v12.447h2.465v-4.672h7.215Zm8.137-.023h7.264v-1.884l-2.405-.073V510.57l2.405-.066v-1.89h-7.264v1.89l2.394.066v8.536l-2.394.073Zm12.922.023h11.022v-2.019h-8.525V516.4h5.833v-1.952h-5.833V510.63h8.425v-1.993h-10.922Zm23.038-6.485h-4.354v-3.97H1427c1.824,0,2.813.569,2.813,1.937,0,1.281-1.029,2.033-2.792,2.033m5.832,6.485-3.788-4.714c1.964-.479,3.348-1.724,3.348-3.786,0-2.436-1.986-3.948-5.213-3.948h-7v12.448h2.466v-4.511h3.63l3.516,4.511Zm15.634-6.207c0,2.437-1.945,4.241-4.731,4.241s-4.772-1.838-4.772-4.275,1.863-4.24,4.65-4.24,4.853,1.839,4.853,4.274m2.587-.034c0-3.521-3.008-6.419-7.318-6.419s-7.357,2.933-7.357,6.454,3.007,6.421,7.318,6.421,7.357-2.934,7.357-6.455m15.334,6.241h2.13V508.638h-2.426V517.2l-8.031-8.566h-2.36v12.447h2.429v-8.78Zm14.47-4.428,5.917-8.02h-2.949l-4.221,5.806-4.2-5.806h-3.005l5.917,8v4.445h2.547Zm21.064,4.428h2.534V508.637h-2.7l-4.383,5.887-4.385-5.887h-2.7v12.448h2.489v-8.793l4.511,5.832h.083l4.549-5.867Zm20.823-5.614v-6.834H1520.3v6.7a3.509,3.509,0,0,1-3.751,3.693,3.58,3.58,0,0,1-3.776-3.783v-6.61h-2.466v6.942c0,3.608,2.551,5.7,6.2,5.7s6.256-2.093,6.256-5.809m7.053-3.693c0-.836,1.033-1.342,2.527-1.342a7.3,7.3,0,0,1,3.947,1.28l1.2-1.729a8.2,8.2,0,0,0-5.038-1.565c-.041,0-.079,0-.118,0h-.057c-2.886,0-4.962,1.458-4.962,3.627,0,1.626.868,2.494,2.455,3.088a14.206,14.206,0,0,0,2.551.733,18.457,18.457,0,0,1,2.154.525c.88.35,1.192.746,1.192,1.309,0,.623-.519,1.1-1.313,1.364a5.405,5.405,0,0,1-1.25.137,6.97,6.97,0,0,1-3.667-1.008c-.332-.213-.661-.45-1-.7l-1.465,1.738a9.186,9.186,0,0,0,5.83,1.991c.038,0,.08,0,.124,0,.017,0,.028,0,.046,0,3.054,0,5.2-1.466,5.2-3.813,0-2.081-1.6-3.022-4.675-3.662-2.782-.57-3.68-1-3.68-1.973" transform="translate(-1373.249 -508.422)" fill="#1d1d1b"/></svg>