<svg xmlns="http://www.w3.org/2000/svg" width="54.071" height="18.199" viewBox="0 0 54.071 18.199"><path d="M719.019,521.664c-.755,0-1.3-.5-1.3-1.666,0-1.4.659-2.868,3.857-3.566v1.512c0,2.4-1.629,3.72-2.559,3.72m-1.647,1.57a4.562,4.562,0,0,0,4.05-2.655h.155a2.383,2.383,0,0,0,2.48,2.578,3.254,3.254,0,0,0,2.694-1.085l-.271-.31a1.288,1.288,0,0,1-.891.388c-.426,0-.737-.272-.737-1.008v-5.969c0-2.984-1.8-4.38-4.844-4.38-2.791,0-4.943,1.124-4.943,3.237a1.689,1.689,0,0,0,1.744,1.783,1.626,1.626,0,0,0,1.667-1.648,1.59,1.59,0,0,0-1.066-1.589c-.1-.077-.232-.1-.232-.31,0-.252.834-.736,1.919-.736,1.841,0,2.461,1.143,2.461,3.7v.6c-5.5,1.163-7.248,2.442-7.248,4.69.019,1.764,1.279,2.713,3.062,2.713m-11.008-1.57c-1.221,0-2-1.376-2-4.786,0-3.353.795-4.671,2-4.671,1.454,0,2.772,2.694,2.772,4.961-.02,2.384-1.377,4.5-2.772,4.5m2.713,1.531,4.922-.407v-.659h-.1c-1.26,0-1.55-.31-1.55-1.589V505.191l-5.446.407v.678h.6c1.3,0,1.57.31,1.57,1.57v3.159l.1,2.365h-.1a4.023,4.023,0,0,0-3.682-2.48c-2.442,0-4.729,2.306-4.729,6.046,0,3.876,2.113,6.24,4.612,6.24,1.783,0,2.985-1.066,3.818-2.81h.136Zm-14.767-.271h6.569v-.678h-.154c-1.26,0-1.55-.31-1.55-1.57v-15.64l-4.962.562v.678h.136c1.3,0,1.57.31,1.57,1.57v12.83c0,1.26-.271,1.57-1.57,1.57h-.019Zm-7.171,0h6.57v-.678h-.078c-1.259,0-1.55-.31-1.55-1.57v-9.768l-4.943.31v.659h.1c1.259,0,1.55.311,1.55,1.589v7.191c0,1.259-.272,1.57-1.55,1.57h-.1Zm3.081-13.6a2.04,2.04,0,0,0,2-2.036,2.018,2.018,0,0,0-2-2,2.016,2.016,0,0,0,0,4.032m-17.52,13.6h6.453v-.678H679.1c-1.3,0-1.492-.31-1.492-1.57v-3.1c0-2.384.834-4.845,2.636-4.845,1.008,0,1.512.736,1.512,2.481v5.446c0,1.259-.232,1.57-1.512,1.57h-.058v.678h6.337v-.678H686.5c-1.3,0-1.472-.311-1.472-1.57v-5.5c0-2.732-1.008-4.263-3.373-4.263-1.666,0-2.965.911-4.05,3.023h-.155l.155-2.907v-5.814l-4.922.407v.678h.155c1.259,0,1.492.31,1.492,1.589v12.791c0,1.259-.271,1.57-1.55,1.57H672.7Z" transform="translate(-672.681 -505.035)"/></svg>