<svg xmlns="http://www.w3.org/2000/svg" width="58.439" height="18.199" viewBox="0 0 58.439 18.199"><g transform="translate(-385.076 -26008.029)"><path d="M291.072,523.408v-1.151l2.1-.246c.684-.082.848-.247.848-.793v-6.253h-8.889v6.253c0,.575.165.712.875.793l2.1.246v1.151h-8.8v-1.151l2.132-.246c.683-.082.846-.218.846-.793V507.755c0-.575-.163-.71-.846-.794l-2.132-.243v-1.151h8.8v1.151l-2.1.243c-.71.084-.875.219-.875.794v5.733h8.89v-5.733c0-.547-.163-.71-.847-.794l-2.1-.243v-1.151h8.8v1.151l-2.1.243c-.71.084-.875.219-.875.794V521.22c0,.547.165.712.875.793l2.1.246v1.151Z" transform="translate(105.764 25502.463)" fill="#161615"/><path d="M309.546,524.3c-3.554,0-6.01-2.705-6.01-6.641,0-4.481,2.95-7.7,7.022-7.7,3.443,0,5.738,2.624,5.738,6.557,0,4.48-2.869,7.787-6.749,7.787m4.016-6.857c0-3.469-1.693-5.956-3.824-5.956-2.023,0-3.443,2.076-3.443,5.055,0,3.554,1.665,6.2,3.879,6.2,2.051,0,3.388-2.023,3.388-5.056Z" transform="translate(102.795 25501.926)" fill="#161615"/><path d="M343.083,523.957h-11.8c.738-.931.876-1.121,1.941-2.57l6.667-9.232h-4.371c-1.449,0-2.023.544-2.187,2.157h-.792V510.05a1.428,1.428,0,0,0,.712.328,13.258,13.258,0,0,0,2.458.19h8.006l-8.164,11.774h3.9a3.975,3.975,0,0,0,2.6-.571c.518-.355.738-.711,1.175-1.83h.9Z" transform="translate(99.395 25501.914)" fill="#161615"/><path d="M327.907,522.611a9.209,9.209,0,0,0,1.448-3.009h-.9a4.191,4.191,0,0,1-1,1.727,2.968,2.968,0,0,1-1.936.68,1.326,1.326,0,0,1-1.487-1.139c0-.036-.008-.072-.01-.109-.041-.387-.018-.875-.018-1.665v-7.281h4.562v-1.572H324v-2.867h-.433l-3.883,3.762v.676h.018l1.521.077c.241.029.3.1.3.326l-.068,4.611-.049,2.1v.951a4.7,4.7,0,0,0,.6,2.923,3.319,3.319,0,0,0,2.8,1.181,4.035,4.035,0,0,0,2.457-.791,2.845,2.845,0,0,0,.642-.575l0-.007,0,0" transform="translate(100.816 25502.242)" fill="#161615"/></g></svg>