<svg xmlns="http://www.w3.org/2000/svg" width="59.349" height="19.785" viewBox="0 0 59.349 19.785"><g transform="translate(-1119.344 -26008.732)"><path d="M1116.153,506.368v9.689a3.586,3.586,0,0,0,1.05,2.536l1.1,1.1.67.669a7.245,7.245,0,0,1,.691.82,4.323,4.323,0,0,1,.792,2.512v2.455h11.579a1.2,1.2,0,0,0,1.2-1.2v-3.109h-11.315c-.894,0-1.458-.6-1.458-1.635v-.228h0V506.368Z" transform="translate(3.191 25502.365)" fill="#1d1d1b"/><path d="M1181.107,524.956V515.39l-4.3-4.3h-8.471v4.3h8.471v6.457h-9.159a1.43,1.43,0,0,1-1.461-1.635v-.228h0V506.368h-4.3v9.689a3.58,3.58,0,0,0,1.051,2.536l1.778,1.779c.062.064.12.127.177.19a5.013,5.013,0,0,1,1.3,3.372v2.218h13.731a1.2,1.2,0,0,0,1.2-1.2" transform="translate(-2.413 25502.365)" fill="#1d1d1b"/><path d="M1155.863,519.3l-1.6-1.6h.005c-.018-.017-.114-.114-.13-.132a4.134,4.134,0,0,1-1.522-2.817c0-.5,0-3,0-3h-13.732a1.2,1.2,0,0,0-1.2,1.2v9.566l4.3,4.3h8.471v-4.3h-8.471V516.05h9.26a1.411,1.411,0,0,1,1.363,1.556v9.205h4.3V521.84a3.588,3.588,0,0,0-1.05-2.537" transform="translate(0.553 25501.707)" fill="#1d1d1b"/></g></svg>